<?xml version="1.0" encoding="UTF-8" standalone="no"?>
<!-- Created with Inkscape (http://www.inkscape.org/) -->

<svg
   xmlns:dc="http://purl.org/dc/elements/1.1/"
   xmlns:cc="http://creativecommons.org/ns#"
   xmlns:rdf="http://www.w3.org/1999/02/22-rdf-syntax-ns#"
   xmlns:svg="http://www.w3.org/2000/svg"
   xmlns="http://www.w3.org/2000/svg"
   xmlns:sodipodi="http://sodipodi.sourceforge.net/DTD/sodipodi-0.dtd"
   xmlns:inkscape="http://www.inkscape.org/namespaces/inkscape"
   width="744.09448819"
   height="1052.3622047"
   id="svg2"
   version="1.1"
   inkscape:version="0.48.1 "
   sodipodi:docname="LogoScreen.svg"
   inkscape:export-filename="C:\xesscorp\PRODUCTS\TUTORIALS\FpgasNowWhat\Chapters\LedsButtons\Videos\LogoScreen.png"
   inkscape:export-xdpi="89.857574"
   inkscape:export-ydpi="89.857574">
  <defs
     id="defs4">
    <filter
       id="InvertTransparencyBitmapFilter">
      <feComponentTransfer
         id="feComponentTransfer3040">
        <feFuncR
           id="feFuncR3042"
           offset="-0.055"
           exponent=".416666666"
           amplitude="1.055"
           type="gamma" />
        <feFuncG
           id="feFuncG3044"
           offset="-0.055"
           exponent=".416666666"
           amplitude="1.055"
           type="gamma" />
        <feFuncB
           id="feFuncB3046"
           offset="-0.055"
           exponent=".416666666"
           amplitude="1.055"
           type="gamma" />
      </feComponentTransfer>
      <feComponentTransfer
         id="feComponentTransfer3048">
        <feFuncR
           id="feFuncR3050"
           intercept="1"
           slope="-1"
           type="linear" />
        <feFuncG
           id="feFuncG3052"
           intercept="1"
           slope="-1"
           type="linear" />
        <feFuncB
           id="feFuncB3054"
           intercept="1"
           slope="-1"
           type="linear" />
        <feFuncA
           id="feFuncA3056"
           intercept="0"
           slope="1"
           type="linear" />
      </feComponentTransfer>
      <feComponentTransfer
         id="feComponentTransfer3058">
        <feFuncR
           id="feFuncR3060"
           offset="0"
           exponent="2.4"
           amplitude="1"
           type="gamma" />
        <feFuncG
           id="feFuncG3062"
           offset="0"
           exponent="2.4"
           amplitude="1"
           type="gamma" />
        <feFuncB
           id="feFuncB3064"
           offset="0"
           exponent="2.4"
           amplitude="1"
           type="gamma" />
      </feComponentTransfer>
    </filter>
    <filter
       id="BleachFilter">
      <feBlend
         id="feBlend3035"
         result="blend"
         in="SourceGraphic"
         in2="BackgroundImage"
         mode="screen" />
      <feComposite
         id="feComposite3037"
         result="comp"
         operator="in"
         in2="SourceAlpha"
         in="blend" />
    </filter>
    <filter
       id="StainedFilter">
      <feBlend
         id="feBlend3030"
         result="blend"
         in="SourceGraphic"
         in2="BackgroundImage"
         mode="multiply" />
      <feComposite
         id="feComposite3032"
         result="comp"
         operator="in"
         in2="SourceAlpha"
         in="blend" />
    </filter>
    <marker
       orient="auto"
       overflow="visible"
       markerHeight="1"
       markerWidth="1"
       viewBox="0 0 1 1"
       markerUnits="strokeWidth"
       id="DefaultArrow9">
      <!-- REF_ARROW_HOLLOWDIAMOND -->
      <g
         id="g3025"
         transform="scale(0.0092592592)">
        <path
           id="path3027"
           d="M 0,45 L -45,0 L 0, -45 L 45, 0 z M 0, 63 L-63, 0 L 0, -63 L 63, 0 z" />
      </g>
    </marker>
    <marker
       orient="auto"
       overflow="visible"
       markerHeight="1"
       markerWidth="1"
       viewBox="0 0 1 1"
       markerUnits="strokeWidth"
       id="DefaultArrow8">
      <!-- REF_ARROW_FEATHER2 -->
      <g
         id="g3020"
         transform="scale(0.0092592592)">
        <path
           id="path3022"
           d="M -36,0 L 18,-54 L 54,-54 L 18,-18 L 27,-18 L 63,-54 L 99,-54 L 63,-18 L 72,-18 L 108,-54 L 144,-54 L 90,0 L 144,54 L 108,54 L 72,18 L 63,18 L 99,54 L 63,54 L 27,18 L 18,18 L 54,54 L 18,54 z" />
      </g>
    </marker>
    <marker
       orient="auto"
       overflow="visible"
       markerHeight="1"
       markerWidth="1"
       viewBox="0 0 1 1"
       markerUnits="strokeWidth"
       id="DefaultArrow7">
      <!-- REF_ARROW_FEATHER -->
      <g
         id="g3015"
         transform="scale(0.0092592592)">
        <path
           id="path3017"
           d="M 18,-54 L 108,-54 L 63,0 L 108,54 L 18, 54 L -36,0 z" />
      </g>
    </marker>
    <marker
       orient="auto"
       overflow="visible"
       markerHeight="1"
       markerWidth="1"
       viewBox="0 0 1 1"
       markerUnits="strokeWidth"
       id="DefaultArrow6">
      <!-- REF_ARROW_DIAMOND -->
      <g
         id="g3010"
         transform="scale(0.0092592592)">
        <path
           id="path3012"
           d="M -63,0 L 0,63 L 63,0 L 0,-63 z" />
      </g>
    </marker>
    <marker
       orient="auto"
       overflow="visible"
       markerHeight="1"
       markerWidth="1"
       viewBox="0 0 1 1"
       markerUnits="strokeWidth"
       id="DefaultArrow5">
      <!-- REF_ARROW_SPOT -->
      <g
         id="g3005"
         transform="scale(0.0092592592)">
        <path
           id="path3007"
           d="M -54, 0 C -54,29.807 -29.807,54 0,54 C 29.807,54 54,29.807 54,0 C 54,-29.807 29.807,-54 0,-54 C -29.807,-54 -54,-29.807 -54,0 z" />
      </g>
    </marker>
    <marker
       orient="auto"
       overflow="visible"
       markerHeight="1"
       markerWidth="1"
       viewBox="0 0 1 1"
       markerUnits="strokeWidth"
       id="DefaultArrow4">
      <!-- REF_ARROW_ROUNDED -->
      <g
         id="g3000"
         transform="scale(0.0092592592)">
        <path
           id="path3002"
           d="M -9,0 L -9,-45 C -9,-51.708 2.808,-56.580 9,-54 L 117,-9 C 120.916,-7.369 126.000,-4.242 126,0 C 126,4.242 120.916,7.369 117,9 L 9,54 C 2.808,56.580 -9,51.708 -9,45 z" />
      </g>
    </marker>
    <marker
       orient="auto"
       overflow="visible"
       markerHeight="1"
       markerWidth="1"
       viewBox="0 0 1 1"
       markerUnits="strokeWidth"
       id="DefaultArrow3">
      <!-- REF_ARROW_ANGLED -->
      <g
         id="g2995"
         transform="scale(0.0092592592)">
        <path
           id="path2997"
           d="M -27 54 L -9 0 L -27 -54 L 135 0 z" />
      </g>
    </marker>
    <marker
       orient="auto"
       overflow="visible"
       markerHeight="1"
       markerWidth="1"
       viewBox="0 0 1 1"
       markerUnits="strokeWidth"
       id="DefaultArrow2">
      <!-- REF_ARROW_STRAIGHT (-2) -->
      <g
         id="g2990"
         transform="scale(0.0092592592)">
        <!-- 1/108 -->
        <path
           id="path2992"
           d="M -9 54 L -9 -54 L 117 0 z" />
      </g>
    </marker>
  </defs>
  <sodipodi:namedview
     id="base"
     pagecolor="#ffffff"
     bordercolor="#666666"
     borderopacity="1.0"
     inkscape:pageopacity="0.0"
     inkscape:pageshadow="2"
     inkscape:zoom="7.9195959"
     inkscape:cx="459.46583"
     inkscape:cy="274.93022"
     inkscape:document-units="px"
     inkscape:current-layer="layer1"
     showgrid="false" />
  <metadata
     id="metadata7">
    <rdf:RDF>
      <cc:Work
         rdf:about="">
        <dc:format>image/svg+xml</dc:format>
        <dc:type
           rdf:resource="http://purl.org/dc/dcmitype/StillImage" />
        <dc:title></dc:title>
      </cc:Work>
    </rdf:RDF>
  </metadata>
  <g
     inkscape:label="Layer 1"
     inkscape:groupmode="layer"
     id="layer1">
    <rect
       style="color:#000000;fill:#ffdd55;fill-opacity:1;fill-rule:evenodd;stroke:none;stroke-width:3;marker:none;visibility:visible;display:inline;overflow:visible;enable-background:accumulate"
       id="rect3137"
       width="319.2085"
       height="236.37405"
       x="179.80716"
       y="554.35699" />
    <g
       transform="matrix(0.49232709,0,0,-0.48189907,247.30445,621.37424)"
       font-size="16"
       id="Document"
       style="font-size:16px;fill:#003399;stroke:#000000;stroke-width:2.56628633000000010;font-family:Times New Roman;fill-opacity:1">
      <g
         transform="translate(0,-612)"
         id="Spread"
         style="stroke-width:2.56628633000000010;fill:#003399;fill-opacity:1">
        <g
           id="Layer 1"
           style="stroke-width:2.56628633000000010;fill:#003399;fill-opacity:1">
          <g
             id="Group"
             style="fill:#003399;stroke:none;fill-opacity:1">
            <path
               id="path3070"
               d="m 462.1,300.42 c 0.396,4.176 0.638,7.416 0.716,9.648 1.598,-0.792 3.099,-1.296 4.42,-1.584 1.309,-0.36 2.654,-0.504 3.806,-0.504 0.576,0 1.163,0.072 1.751,0.144 0.588,0.072 1.055,0.288 1.307,0.504 0.311,0.144 0.503,0.432 0.562,0.792 0.023,0.144 0.059,0.36 -0.002,0.432 -0.036,0.216 -0.085,0.36 -0.133,0.504 -0.109,0.216 -0.278,0.504 -0.59,0.792 -0.061,0.072 -0.674,0.72 -1.794,1.8 l -1.974,2.016 c -0.614,0.648 -1.167,1.224 -1.528,1.656 -0.434,0.432 -0.783,0.936 -1.133,1.44 -0.349,0.504 -0.626,1.008 -0.82,1.584 -0.134,0.504 -0.244,1.152 -0.293,1.728 -0.038,0.648 -0.016,1.224 0.09,1.872 0.142,0.864 0.427,1.728 0.785,2.592 0.417,0.792 0.907,1.584 1.613,2.376 0.622,0.72 1.376,1.368 2.118,1.944 0.731,0.504 1.593,0.936 2.672,1.368 1.007,0.432 2.134,0.72 3.381,0.864 1.26,0.216 2.651,0.36 4.019,0.36 1.224,0 2.641,-0.144 4.273,-0.288 1.632,-0.144 3.325,-0.36 4.982,-0.792 -0.14,-1.296 -0.268,-2.52 -0.385,-3.672 -0.105,-1.08 -0.207,-3.024 -0.343,-5.616 -1.262,0.648 -2.559,1.08 -3.748,1.296 -1.105,0.288 -2.233,0.432 -3.241,0.432 -1.08,0 -1.968,-0.144 -2.591,-0.432 -0.623,-0.288 -0.982,-0.72 -1.053,-1.152 -0.023,-0.144 -0.047,-0.288 -0.01,-0.504 -0.024,-0.144 0.157,-0.36 0.314,-0.72 0.169,-0.288 0.53,-0.72 0.963,-1.152 0.505,-0.432 0.939,-0.864 1.456,-1.224 1.251,-1.152 2.13,-1.944 2.635,-2.376 0.433,-0.432 0.854,-0.936 1.276,-1.44 0.41,-0.576 0.747,-1.152 1.025,-1.656 0.205,-0.504 0.411,-1.008 0.484,-1.44 0.157,-0.36 0.219,-0.864 0.232,-1.224 0.001,-0.432 -0.01,-0.936 -0.08,-1.368 -0.248,-1.512 -0.832,-2.88 -1.776,-4.248 -0.944,-1.368 -2.213,-2.52 -3.65,-3.384 -1.449,-0.936 -3.056,-1.512 -4.699,-1.872 -1.631,-0.288 -3.322,-0.504 -5.122,-0.504 -1.08,0 -2.496,0.144 -4.285,0.216 -1.704,0.144 -3.601,0.432 -5.63,0.792 z"
               inkscape:connector-curvature="0"
               style="marker-start:none;marker-end:none;fill:#003399;fill-opacity:1" />
            <path
               id="path3072"
               d="m 436.036,300.42 c 0.396,4.176 0.639,7.416 0.716,9.648 1.598,-0.792 3.1,-1.296 4.421,-1.584 1.309,-0.36 2.653,-0.504 3.805,-0.504 0.576,0 1.164,0.072 1.752,0.144 0.587,0.072 1.055,0.288 1.306,0.504 0.312,0.144 0.503,0.432 0.562,0.792 0.023,0.144 0.059,0.36 -0.002,0.432 -0.036,0.216 -0.085,0.36 -0.133,0.504 -0.109,0.216 -0.278,0.504 -0.59,0.792 -0.061,0.072 -0.674,0.72 -1.793,1.8 l -1.974,2.016 c -0.614,0.648 -1.168,1.224 -1.529,1.656 -0.434,0.432 -0.783,0.936 -1.133,1.44 -0.349,0.504 -0.626,1.008 -0.82,1.584 -0.133,0.504 -0.243,1.152 -0.293,1.728 -0.038,0.648 -0.016,1.224 0.09,1.872 0.142,0.864 0.427,1.728 0.785,2.592 0.418,0.792 0.907,1.584 1.613,2.376 0.622,0.72 1.376,1.368 2.118,1.944 0.731,0.504 1.593,0.936 2.672,1.368 1.007,0.432 2.134,0.72 3.382,0.864 1.259,0.216 2.651,0.36 4.019,0.36 1.224,0 2.64,-0.144 4.272,-0.288 1.633,-0.144 3.325,-0.36 4.983,-0.792 -0.141,-1.296 -0.269,-2.52 -0.386,-3.672 -0.105,-1.08 -0.207,-3.024 -0.343,-5.616 -1.262,0.648 -2.559,1.08 -3.748,1.296 -1.105,0.288 -2.233,0.432 -3.241,0.432 -1.08,0 -1.968,-0.144 -2.591,-0.432 -0.623,-0.288 -0.982,-0.72 -1.053,-1.152 -0.023,-0.144 -0.047,-0.288 -0.01,-0.504 -0.024,-0.144 0.157,-0.36 0.314,-0.72 0.169,-0.288 0.53,-0.72 0.963,-1.152 0.506,-0.432 0.939,-0.864 1.456,-1.224 1.251,-1.152 2.13,-1.944 2.635,-2.376 0.433,-0.432 0.854,-0.936 1.276,-1.44 0.41,-0.576 0.747,-1.152 1.025,-1.656 0.205,-0.504 0.411,-1.008 0.484,-1.44 0.157,-0.36 0.219,-0.864 0.232,-1.224 10e-4,-0.432 -0.01,-0.936 -0.08,-1.368 -0.248,-1.512 -0.832,-2.88 -1.776,-4.248 -0.944,-1.368 -2.213,-2.52 -3.65,-3.384 -1.449,-0.936 -3.055,-1.512 -4.698,-1.872 -1.632,-0.288 -3.323,-0.504 -5.123,-0.504 -1.08,0 -2.496,0.144 -4.285,0.216 -1.704,0.144 -3.601,0.432 -5.63,0.792 z"
               inkscape:connector-curvature="0"
               style="marker-start:none;marker-end:none;fill:#003399;fill-opacity:1" />
            <path
               id="path3074"
               d="m 404.802,300.06 c 0.925,3.456 1.732,6.624 2.396,9.36 0.676,2.808 1.517,6.624 2.499,11.304 0.91,4.68 1.561,7.776 1.797,9.216 l 0.282,2.16 2.652,-0.072 2.88,0 2.952,0 11.376,0 5.544,0 3.036,0.072 -0.261,-1.152 c 0,0 -0.024,-0.144 -0.059,-0.36 l -1.196,-5.544 c -0.023,-0.144 -0.131,-0.36 -0.166,-0.576 l -0.154,-0.936 c -3.444,0.072 -5.808,0.144 -7.176,0.144 -2.304,0 -3.888,0 -4.608,0 -0.792,0 -2.1,-0.072 -3.911,-0.144 l -0.723,-3.096 c 2.376,0 4.092,-0.072 5.028,-0.072 1.008,0 2.1,0.072 3.18,0.072 l 4.775,0.144 -2.014,-8.784 c -2.16,0 -3.948,0.072 -5.46,0.072 -2.232,0 -4.764,-0.072 -7.512,-0.144 l -0.83,-3.312 2.868,-0.072 c 0.288,0 0.66,0.072 1.02,0.072 l 9.467,0.216 c 0.36,0 1.308,0.072 2.76,0.144 -0.664,-2.736 -1.352,-5.616 -2.003,-8.712 -3.804,0.072 -8.412,0.072 -13.74,0.072 l -5.4,0 -6.204,-0.072 -3.095,0 z"
               inkscape:connector-curvature="0"
               style="marker-start:none;marker-end:none;fill:#003399;fill-opacity:1" />
            <path
               id="path3076"
               d="m 378.064,286.884 c -0.144,-0.36 -0.36,-0.936 -0.648,-1.728 -0.288,-0.792 -0.432,-1.368 -0.576,-1.728 -0.72,-0.072 -1.368,-0.144 -2.016,-0.216 -0.648,0 -1.152,0 -1.512,0 -1.008,0 -1.872,0.072 -2.664,0.36 -0.792,0.216 -1.512,0.648 -2.16,1.152 -0.504,0.576 -0.864,1.224 -1.08,1.944 -0.144,0.72 -0.144,1.512 0.072,2.376 0.144,1.08 0.576,2.088 1.08,2.952 0.576,0.792 1.368,1.584 2.304,2.088 0.864,0.576 1.8,1.008 2.736,1.224 0.936,0.216 1.944,0.36 2.88,0.36 0.792,0 1.872,-0.144 3.24,-0.36 l -0.144,-1.152 c -0.072,-0.288 -0.144,-0.648 -0.216,-1.08 l -0.144,-1.152 c -0.72,0.144 -1.224,0.288 -1.584,0.36 -0.432,0 -0.792,0.072 -1.152,0.072 -0.72,0 -1.296,-0.144 -1.944,-0.432 -0.648,-0.288 -1.152,-0.72 -1.584,-1.224 -0.36,-0.504 -0.72,-1.08 -0.792,-1.656 -0.144,-0.504 -0.072,-0.936 0.072,-1.296 0.144,-0.36 0.432,-0.72 0.864,-0.936 0.36,-0.288 0.936,-0.36 1.656,-0.36 0.432,0 0.936,0 1.368,0.072 0.504,0.072 1.224,0.216 1.944,0.36 z m 8.136,5.76 c 0.936,0 1.872,-0.144 2.664,-0.504 0.72,-0.36 1.296,-0.936 1.656,-1.584 0.36,-0.72 0.36,-1.584 0.216,-2.52 -0.144,-0.648 -0.288,-1.224 -0.648,-1.8 -0.288,-0.576 -0.792,-1.152 -1.296,-1.584 -0.576,-0.504 -1.296,-0.864 -2.16,-1.08 -0.72,-0.288 -1.656,-0.36 -2.448,-0.36 -0.864,0 -1.584,0.072 -2.304,0.36 -0.648,0.216 -1.224,0.576 -1.656,1.008 -0.432,0.432 -0.648,1.008 -0.72,1.512 -0.144,0.576 -0.144,1.152 -0.072,1.728 0.216,0.936 0.648,1.8 1.224,2.52 0.648,0.72 1.44,1.296 2.448,1.728 1.008,0.432 2.016,0.576 3.096,0.576 z m -0.72,-3.168 c -0.216,0 -0.504,-0.072 -0.792,-0.216 -0.144,-0.144 -0.432,-0.36 -0.576,-0.648 -0.072,-0.288 -0.216,-0.576 -0.288,-0.936 -0.072,-0.432 -0.072,-0.792 0.072,-1.08 0.288,-0.216 0.432,-0.36 0.792,-0.36 0.288,0 0.504,0.072 0.792,0.216 0.216,0.216 0.432,0.432 0.576,0.72 0.144,0.288 0.288,0.576 0.36,0.936 0.072,0.432 0,0.792 -0.144,1.008 -0.144,0.288 -0.432,0.36 -0.792,0.36 l 0,0 z m 5.544,-6.048 c 0.36,1.728 0.792,3.096 1.008,4.032 0.216,0.936 0.504,1.944 0.72,3.168 0.072,0.504 0.216,1.08 0.288,1.8 0.864,0 1.512,0 2.015,0 0.648,0 1.296,0 2.088,0 l -0.144,-0.792 c 0.288,0.216 0.504,0.36 0.72,0.504 0.144,0.072 0.288,0.216 0.432,0.288 0.288,0.072 0.432,0.144 0.648,0.144 0.144,0.072 0.36,0.072 0.576,0.072 0.144,0 0.36,0 0.648,-0.072 -0.072,-0.144 -0.072,-0.432 -0.144,-0.864 -0.072,-0.36 -0.144,-0.792 -0.216,-1.296 l -0.216,-1.44 c -0.144,0.072 -0.288,0.144 -0.432,0.144 -0.144,0 -0.288,0 -0.36,0 -0.432,0 -0.72,-0.072 -1.08,-0.144 -0.216,-0.144 -0.432,-0.288 -0.72,-0.504 -0.144,-0.216 -0.36,-0.504 -0.504,-0.792 -0.144,-0.288 -0.288,-0.72 -0.432,-1.224 -0.144,-0.576 -0.288,-1.152 -0.36,-1.656 -0.144,-0.432 -0.144,-0.864 -0.216,-1.368 -0.719,0 -1.367,0 -2.087,0 -0.72,0 -1.44,0 -2.232,0 z m 7.199,-4.176 0.576,1.728 0.864,3.672 1.152,4.608 0.216,1.224 c 0.072,0.288 0.216,0.864 0.36,1.728 1.224,0.216 2.304,0.288 3.024,0.36 0.72,0.072 1.44,0.072 2.16,0.072 0.936,0 1.728,-0.072 2.376,-0.216 0.792,-0.144 1.296,-0.504 1.728,-0.936 0.36,-0.432 0.576,-1.008 0.72,-1.656 0.072,-0.648 0.072,-1.296 -0.072,-2.016 -0.072,-0.576 -0.288,-1.224 -0.576,-1.8 -0.288,-0.504 -0.648,-1.08 -1.08,-1.512 -0.432,-0.432 -0.936,-0.792 -1.44,-1.008 -0.432,-0.216 -1.008,-0.288 -1.584,-0.288 -0.432,0 -0.792,0.072 -1.296,0.144 -0.504,0.144 -1.008,0.36 -1.656,0.648 -0.504,-1.944 -0.792,-3.528 -1.08,-4.752 -0.72,0 -1.44,0 -2.16,0 -0.576,0 -1.296,0 -2.232,0 l 0,0 z m 6.84,10.296 c -0.216,-0.576 -0.36,-1.08 -0.432,-1.44 -0.072,-0.36 -0.072,-0.72 0,-1.008 0,-0.288 0.144,-0.504 0.288,-0.648 0.144,-0.144 0.36,-0.216 0.576,-0.216 0.36,0 0.792,0.216 1.08,0.504 0.216,0.288 0.432,0.72 0.576,1.224 0.072,0.36 0,0.648 0,0.864 -0.072,0.288 -0.216,0.432 -0.36,0.576 -0.216,0.144 -0.504,0.216 -0.864,0.216 -0.216,0 -0.504,0 -0.864,-0.072 z m 13.896,3.096 c 0.936,0 1.872,-0.144 2.664,-0.504 0.72,-0.36 1.296,-0.936 1.656,-1.584 0.36,-0.72 0.36,-1.584 0.216,-2.52 -0.144,-0.648 -0.288,-1.224 -0.648,-1.8 -0.288,-0.576 -0.792,-1.152 -1.296,-1.584 -0.576,-0.504 -1.296,-0.864 -2.16,-1.08 -0.72,-0.288 -1.656,-0.36 -2.448,-0.36 -0.864,0 -1.584,0.072 -2.304,0.36 -0.648,0.216 -1.224,0.576 -1.656,1.008 -0.432,0.432 -0.648,1.008 -0.72,1.512 -0.144,0.576 -0.144,1.152 -0.072,1.728 0.216,0.936 0.648,1.8 1.224,2.52 0.648,0.72 1.44,1.296 2.448,1.728 1.008,0.432 2.016,0.576 3.096,0.576 z m -0.72,-3.168 c -0.216,0 -0.504,-0.072 -0.792,-0.216 -0.144,-0.144 -0.432,-0.36 -0.576,-0.648 -0.072,-0.288 -0.216,-0.576 -0.288,-0.936 -0.072,-0.432 -0.072,-0.792 0.072,-1.08 0.288,-0.216 0.432,-0.36 0.792,-0.36 0.288,0 0.504,0.072 0.792,0.216 0.216,0.216 0.432,0.432 0.576,0.72 0.144,0.288 0.288,0.576 0.36,0.936 0.072,0.432 0,0.792 -0.144,1.008 -0.144,0.288 -0.432,0.36 -0.792,0.36 l 0,0 z m 5.544,-6.048 c 0.36,1.728 0.792,3.096 1.008,4.032 0.216,0.936 0.504,1.944 0.72,3.168 0.072,0.504 0.216,1.08 0.288,1.8 0.864,0 1.512,0 2.016,0 0.648,0 1.296,0 2.088,0 l -0.144,-0.792 c 0.288,0.216 0.504,0.36 0.72,0.504 0.144,0.072 0.288,0.216 0.432,0.288 0.288,0.072 0.432,0.144 0.648,0.144 0.144,0.072 0.36,0.072 0.576,0.072 0.144,0 0.36,0 0.648,-0.072 -0.072,-0.144 -0.072,-0.432 -0.144,-0.864 -0.072,-0.36 -0.144,-0.792 -0.216,-1.296 l -0.216,-1.44 c -0.144,0.072 -0.288,0.144 -0.432,0.144 -0.144,0 -0.288,0 -0.36,0 -0.432,0 -0.72,-0.072 -1.08,-0.144 -0.216,-0.144 -0.432,-0.288 -0.72,-0.504 -0.144,-0.216 -0.36,-0.504 -0.504,-0.792 -0.144,-0.288 -0.288,-0.72 -0.432,-1.224 -0.144,-0.576 -0.288,-1.152 -0.36,-1.656 -0.144,-0.432 -0.144,-0.864 -0.216,-1.368 -0.72,0 -1.368,0 -2.088,0 -0.72,0 -1.44,0 -2.232,0 z m 10.44,5.976 0.36,1.08 c 0.072,0.144 0.144,0.432 0.216,0.72 l 0.288,0.864 c 1.08,0.216 1.944,0.36 2.808,0.432 0.792,0.144 1.512,0.144 2.088,0.144 0.648,0 1.368,-0.072 1.872,-0.216 0.576,-0.144 1.008,-0.432 1.296,-0.792 0.216,-0.36 0.36,-0.864 0.216,-1.512 l 0,-0.216 c -0.072,-0.288 -0.216,-0.648 -0.288,-1.152 l -0.432,-1.44 c -0.072,-0.36 -0.216,-0.864 -0.36,-1.44 l -0.504,-2.448 c -0.72,0 -1.44,0 -2.088,0 -0.72,0 -1.44,0 -2.16,0 l 0.072,0.432 c 0,0.072 0.144,0.216 0.144,0.36 l 0.648,2.664 c -0.288,-0.072 -0.576,-0.144 -0.936,-0.216 -0.36,-0.144 -0.576,-0.216 -0.648,-0.288 -0.144,-0.072 -0.216,-0.144 -0.288,-0.216 0,-0.072 -0.072,-0.144 -0.072,-0.216 -0.072,-0.144 0,-0.216 0.072,-0.288 0,-0.144 0.144,-0.144 0.36,-0.144 0.072,0 0.216,0 0.288,0 0.072,0 0.288,0.072 0.432,0.144 -0.36,-0.576 -0.792,-1.368 -1.224,-2.376 -0.504,-0.072 -0.936,-0.072 -1.296,-0.072 -0.72,0 -1.296,0.072 -1.8,0.288 -0.36,0.216 -0.72,0.576 -0.936,1.008 -0.216,0.432 -0.216,0.864 -0.144,1.368 0.072,0.216 0.144,0.504 0.216,0.792 0.144,0.216 0.36,0.432 0.504,0.648 0.216,0.288 0.432,0.504 0.72,0.648 0.144,0.216 0.504,0.36 0.864,0.504 0.36,0.144 0.792,0.288 1.152,0.36 0.432,0.144 0.864,0.216 1.224,0.288 0.36,0.072 0.648,0.072 0.864,0.144 0.216,0.072 0.36,0.072 0.576,0.144 0.072,0 0.216,0.072 0.288,0.072 0.072,0.072 0.144,0.144 0.144,0.216 0.072,0.072 0.144,0.144 0.144,0.216 0,0.144 -0.072,0.216 -0.144,0.288 -0.072,0.072 -0.288,0.144 -0.504,0.144 -0.936,0 -2.304,-0.288 -4.032,-0.936 z m 17.28,-2.808 -0.288,-0.936 -0.864,-2.16 c -0.648,-0.144 -1.224,-0.216 -1.656,-0.288 -0.36,0 -0.72,0 -1.08,0 -0.504,0 -0.936,0 -1.296,0.072 -0.36,0.144 -0.72,0.288 -0.936,0.504 -0.288,0.216 -0.432,0.504 -0.504,0.792 0,0.36 0,0.72 0.072,1.008 0,0.144 0,0.288 0.072,0.432 0,0.216 0.144,0.504 0.216,1.008 l 0.576,2.304 -1.44,0 c 0.216,0.504 0.288,1.152 0.432,1.8 l 0.288,1.152 1.584,0 c 0.072,0.288 0.144,0.504 0.216,0.648 l 0.288,1.152 2.016,0.36 c 0.288,0.072 0.936,0.216 2.16,0.504 -0.216,-0.72 -0.36,-1.584 -0.648,-2.664 l 1.872,0 -0.504,-2.448 c -0.072,-0.144 -0.072,-0.36 -0.144,-0.504 l -1.872,0 -0.072,-0.576 c -0.144,-0.144 -0.144,-0.36 -0.216,-0.72 -0.072,-0.36 -0.072,-0.504 -0.144,-0.576 -0.072,-0.432 0,-0.72 0.072,-0.864 0.144,-0.144 0.36,-0.216 0.576,-0.216 0.144,0 0.288,0 0.432,0 0.144,0.072 0.432,0.072 0.792,0.216 z m 2.808,6.624 c 0.216,0.792 0.36,1.44 0.432,1.872 0.072,0.144 0.072,0.36 0.072,0.648 0.936,-0.072 1.656,-0.072 2.232,-0.072 0.792,0 1.44,0 2.088,0.072 l -0.504,-1.872 -0.144,-0.648 c -0.72,0 -1.368,0 -2.016,0 -0.648,0 -1.368,0 -2.16,0 z m -2.448,-9.792 c 0.216,0.72 0.36,1.296 0.504,1.728 0.144,0.504 0.288,1.008 0.504,1.728 0.144,0.648 0.36,1.44 0.504,2.304 0.144,0.864 0.432,1.944 0.648,3.24 0.936,0 1.728,0 2.232,0 0.504,0 1.296,0 2.232,0 -0.288,-1.152 -0.504,-2.088 -0.72,-2.88 -0.216,-0.792 -0.36,-1.512 -0.504,-2.16 -0.36,-2.16 -0.648,-3.528 -0.72,-3.96 -0.864,0 -1.656,0 -2.232,0 -0.648,0 -1.44,0 -2.448,0 z m 13.68,9.216 c 0.936,0 1.872,-0.144 2.664,-0.504 0.72,-0.36 1.296,-0.936 1.656,-1.584 0.36,-0.72 0.36,-1.584 0.216,-2.52 -0.144,-0.648 -0.288,-1.224 -0.648,-1.8 -0.288,-0.576 -0.792,-1.152 -1.296,-1.584 -0.576,-0.504 -1.296,-0.864 -2.16,-1.08 -0.72,-0.288 -1.656,-0.36 -2.448,-0.36 -0.864,0 -1.584,0.072 -2.304,0.36 -0.648,0.216 -1.224,0.576 -1.656,1.008 -0.432,0.432 -0.648,1.008 -0.72,1.512 -0.144,0.576 -0.144,1.152 -0.072,1.728 0.216,0.936 0.648,1.8 1.224,2.52 0.648,0.72 1.44,1.296 2.448,1.728 1.008,0.432 2.016,0.576 3.096,0.576 z m -0.72,-3.168 c -0.216,0 -0.504,-0.072 -0.792,-0.216 -0.144,-0.144 -0.432,-0.36 -0.576,-0.648 -0.072,-0.288 -0.216,-0.576 -0.288,-0.936 -0.072,-0.432 -0.072,-0.792 0.072,-1.08 0.288,-0.216 0.432,-0.36 0.792,-0.36 0.288,0 0.504,0.072 0.792,0.216 0.216,0.216 0.432,0.432 0.576,0.72 0.144,0.288 0.288,0.576 0.36,0.936 0.072,0.432 0,0.792 -0.144,1.008 -0.144,0.288 -0.432,0.36 -0.792,0.36 l 0,0 z m 5.4,-6.048 c 0.288,0.72 0.504,1.44 0.576,1.944 0.144,0.504 0.36,1.224 0.576,2.016 0.216,0.864 0.432,1.656 0.576,2.448 0.216,0.792 0.36,1.656 0.504,2.592 0.864,0 1.656,0 2.232,0 0.792,0 1.44,0 2.16,0 l -0.216,-0.936 c 0.288,0.216 0.504,0.36 0.648,0.504 0.216,0.072 0.504,0.216 0.72,0.288 0.288,0.144 0.648,0.216 1.008,0.288 0.288,0.072 0.648,0.072 1.008,0.072 0.576,0 1.08,-0.072 1.512,-0.216 0.432,-0.144 0.792,-0.36 1.008,-0.576 0.216,-0.288 0.36,-0.576 0.36,-0.936 0.072,-0.288 0.072,-0.648 0,-1.08 -0.072,-0.216 -0.144,-0.648 -0.36,-1.368 l -0.72,-3.168 c -0.144,-0.648 -0.288,-1.224 -0.432,-1.872 -0.72,0 -1.368,0 -2.016,0 -0.864,0 -1.656,0 -2.376,0 0.216,0.648 0.432,1.368 0.576,2.232 0.216,0.936 0.36,1.512 0.36,1.8 0.144,0.72 0.216,1.224 0.072,1.44 -0.072,0.216 -0.288,0.288 -0.576,0.288 -0.216,0 -0.432,-0.072 -0.72,-0.216 -0.216,-0.216 -0.504,-0.504 -0.72,-0.864 -0.216,-0.504 -0.432,-1.224 -0.648,-2.16 -0.288,-0.864 -0.504,-1.656 -0.648,-2.52 -0.72,0 -1.44,0 -2.088,0 -0.72,0 -1.512,0 -2.376,0 z"
               inkscape:connector-curvature="0"
               style="marker-start:none;marker-end:none;fill:#003399;fill-opacity:1" />
            <path
               id="path3078"
               d="m 409.383,331.74 -0.123,0 -8.762,-9.432 -4.986,-5.832 c 1.958,-4.879 4.014,-10.55 6.854,-16.344 l 0.105,0 6.912,31.608 z m -13.801,0 -6.686,0 0.976,-3.096 c 0.279,-0.936 0.654,-2.16 1.078,-3.528 0.574,0.864 1.135,1.656 1.613,2.376 l 3.019,4.248 z m -20.839,0 -43.263,0 -29.808,-31.608 63.919,0 c 2.216,2.342 5.026,5.441 8.007,8.712 3.111,3.414 5.633,6.264 7.439,8.496 l -3.166,7.488 -2.391,5.184 c -0.097,0.192 -0.356,0.786 -0.737,1.728 z m 4.407,-31.608 9.467,0 -1.457,4.032 c -0.403,1.113 -0.788,2.664 -1.346,4.536 l -0.669,-1.008 c -0.095,-0.144 -0.358,-0.432 -0.55,-0.72 -0.191,-0.288 -0.518,-0.662 -0.908,-1.152 l -4.537,-5.688 z"
               inkscape:connector-curvature="0"
               style="marker-start:none;marker-end:none;fill:#003399;fill-opacity:1" />
          </g>
        </g>
      </g>
    </g>
  </g>
</svg>
